<svg width="500" height="500" viewBox="0 0 500 500" fill="none" xmlns="http://www.w3.org/2000/svg">
<path d="M338.409 186.539C344.513 192.642 344.513 202.536 338.409 208.636L233.588 313.461C227.484 319.562 217.593 319.562 211.49 313.461L161.591 263.559C155.487 257.458 155.487 247.565 161.591 241.464C167.691 235.361 177.585 235.361 183.685 241.464L222.537 280.316L316.312 186.539C322.415 180.438 332.309 180.438 338.409 186.539V186.539ZM450 250C450 360.55 360.535 450 250 450C139.45 450 50 360.535 50 250C50 139.45 139.465 50 250 50C360.55 50 450 139.465 450 250ZM418.75 250C418.75 156.723 343.265 81.25 250 81.25C156.723 81.25 81.25 156.735 81.25 250C81.25 343.277 156.735 418.75 250 418.75C343.277 418.75 418.75 343.265 418.75 250Z" fill="#00AF53"/>
</svg>
