<svg width="500" height="500" viewBox="0 0 500 500" fill="none" xmlns="http://www.w3.org/2000/svg">
<path d="M443.758 256.242C443.758 207.409 425.534 160.763 392.444 124.894C360.515 90.2857 317.527 68.6307 270.998 63.6132C270.058 61.5135 268.806 59.5426 267.253 57.7834C262.886 52.8367 256.598 50 250 50C243.402 50 237.115 52.8367 232.749 57.7825C228.383 62.7292 226.348 69.3203 227.166 75.8672L236.556 150.985C237.4 157.745 243.173 162.842 250.017 162.842C256.829 162.842 262.603 157.745 263.447 150.985L272.711 76.8686C314.925 82.1601 353.836 102.159 382.919 133.683C412.327 165.559 429.138 206.563 430.671 249.762H406.065C402.486 249.762 399.585 252.663 399.585 256.242C399.585 259.821 402.486 262.722 406.065 262.722H430.669C427.32 357.271 351.03 433.561 256.482 436.91V412.307C256.482 408.728 253.58 405.826 250.001 405.826C246.422 405.826 243.521 408.728 243.521 412.307V436.91C148.971 433.561 72.6818 357.271 69.3327 262.722H93.9367C97.5156 262.722 100.417 259.821 100.417 256.242C100.417 252.663 97.5156 249.762 93.9367 249.762H69.3301C70.1268 226.903 75.1305 204.77 84.2627 183.883C93.9168 161.803 107.692 142.132 125.207 125.421C127.796 122.95 127.892 118.848 125.422 116.258C122.951 113.67 118.85 113.573 116.26 116.043C97.4948 133.949 82.7342 155.027 72.388 178.691C61.6755 203.193 56.2432 229.285 56.2432 256.241C56.2432 307.995 76.3972 356.652 112.993 393.248C149.587 429.842 198.239 449.995 249.989 449.998C249.993 449.998 249.996 449.999 250 449.999C250.005 449.999 250.008 449.998 250.012 449.998C301.762 449.996 350.415 429.842 387.008 393.248C423.604 356.653 443.758 307.996 443.758 256.242ZM259.974 74.26L250.584 149.379C250.549 149.666 250.305 149.881 249.985 149.881C249.696 149.881 249.452 149.665 249.415 149.378L240.026 74.2592C239.663 71.3577 240.529 68.5521 242.464 66.36C244.399 64.1679 247.076 62.9608 250 62.9608C252.924 62.9608 255.6 64.1679 257.536 66.3609C259.471 68.5538 260.337 71.3577 259.974 74.26Z" fill="#B9B9B9"/>
<path d="M218.662 253.691C218.594 254.534 218.55 255.383 218.55 256.243C218.55 273.584 232.658 287.694 250 287.694C267.341 287.694 281.45 273.584 281.45 256.243C281.45 238.901 267.341 224.792 250 224.792C249.885 224.792 249.774 224.8 249.66 224.801L160.481 151.36C157.966 149.289 154.303 149.407 151.927 151.637C149.551 153.867 149.2 157.515 151.108 160.157L218.662 253.691ZM268.489 256.242C268.489 266.437 260.194 274.732 250 274.732C239.805 274.732 231.51 266.437 231.51 256.242C231.51 255.395 231.587 254.568 231.698 253.752C231.822 253.303 231.898 252.843 231.923 252.378C233.519 244.906 239.642 239.111 247.272 237.976C247.913 238.01 248.555 237.948 249.179 237.794C249.453 237.782 249.722 237.752 249.999 237.752C260.195 237.752 268.489 246.047 268.489 256.242ZM234.349 228.98C230.152 231.4 226.56 234.753 223.869 238.763L191.051 193.323L234.349 228.98Z" fill="#B9B9B9"/>
</svg>
