<svg width="500" height="500" viewBox="0 0 500 500" fill="none" xmlns="http://www.w3.org/2000/svg">
<path d="M165.45 93.6577H153.189V337.557H165.45V93.6577Z" fill="#B9B9B9"/>
<path d="M384.334 50H159.319C135.249 50 115.665 69.5836 115.665 93.6539V406.346C115.665 430.417 135.248 450 159.319 450H384.334V381.33H372.074V437.738H159.318C142.009 437.738 127.925 423.656 127.925 406.345C127.925 389.034 142.008 374.952 159.318 374.952H384.334V50H384.334ZM372.073 362.692H165.449V350.062H153.188V363.134C143.336 364.525 134.527 369.206 127.926 376.041V93.6539C127.926 78.4422 138.803 65.7266 153.188 62.8672V81.1461H165.449V62.2609H372.074V362.692H372.073Z" fill="#B9B9B9"/>
<path d="M159.318 393.716V381.455C145.592 381.455 134.426 392.621 134.426 406.347C134.426 420.072 145.592 431.239 159.318 431.239V418.977C152.353 418.977 146.688 413.31 146.688 406.346C146.688 399.382 152.354 393.716 159.318 393.716Z" fill="#B9B9B9"/>
<path d="M177.957 381.33H165.696V431.364H177.957V381.33Z" fill="#B9B9B9"/>
<path d="M365.692 381.452H184.333V393.713H365.692V381.452Z" fill="#B9B9B9"/>
<path d="M365.692 400.213H184.333V412.474H365.692V400.213Z" fill="#B9B9B9"/>
<path d="M365.692 418.98H184.333V431.24H365.692V418.98Z" fill="#B9B9B9"/>
<path d="M303.16 331.427H234.366V343.688H303.16V331.427Z" fill="#B9B9B9"/>
<path d="M340.556 81.2695H196.965V193.593H340.556V81.2695ZM328.295 181.331H209.227V93.5305H328.296V181.331H328.295Z" fill="#B9B9B9"/>
<path d="M315.667 106.284H221.86V118.545H315.667V106.284Z" fill="#B9B9B9"/>
<path d="M290.654 131.3H221.86V143.561H290.654V131.3Z" fill="#B9B9B9"/>
<path d="M278.145 156.312H221.86V168.574H278.145V156.312Z" fill="#B9B9B9"/>
</svg>
